<svg id="visual" viewBox="0 0 900 600" width="900" height="600" xmlns="http://www.w3.org/2000/svg" xmlns:xlink="http://www.w3.org/1999/xlink" version="1.1"><rect x="0" y="0" width="900" height="600" fill="#78b7dc"></rect><path d="M0 281L100 320L200 193L300 234L400 294L500 244L600 213L700 183L800 232L900 298L900 601L800 601L700 601L600 601L500 601L400 601L300 601L200 601L100 601L0 601Z" fill="#ffffff"></path><path d="M0 337L100 242L200 319L300 346L400 261L500 325L600 283L700 277L800 268L900 334L900 601L800 601L700 601L600 601L500 601L400 601L300 601L200 601L100 601L0 601Z" fill="#e7efeb"></path><path d="M0 273L100 355L200 369L300 288L400 265L500 304L600 366L700 286L800 304L900 297L900 601L800 601L700 601L600 601L500 601L400 601L300 601L200 601L100 601L0 601Z" fill="#cfdfd7"></path><path d="M0 373L100 352L200 374L300 330L400 309L500 321L600 411L700 369L800 314L900 372L900 601L800 601L700 601L600 601L500 601L400 601L300 601L200 601L100 601L0 601Z" fill="#b8d0c4"></path><path d="M0 414L100 429L200 375L300 362L400 394L500 388L600 370L700 425L800 381L900 377L900 601L800 601L700 601L600 601L500 601L400 601L300 601L200 601L100 601L0 601Z" fill="#a1c0b1"></path><path d="M0 415L100 464L200 446L300 405L400 442L500 435L600 467L700 438L800 436L900 471L900 601L800 601L700 601L600 601L500 601L400 601L300 601L200 601L100 601L0 601Z" fill="#8ab19e"></path><path d="M0 492L100 438L200 512L300 502L400 458L500 513L600 442L700 480L800 513L900 515L900 601L800 601L700 601L600 601L500 601L400 601L300 601L200 601L100 601L0 601Z" fill="#74a18c"></path><path d="M0 543L100 511L200 522L300 509L400 483L500 493L600 541L700 496L800 508L900 502L900 601L800 601L700 601L600 601L500 601L400 601L300 601L200 601L100 601L0 601Z" fill="#5d927a"></path><path d="M0 549L100 532L200 555L300 533L400 543L500 564L600 556L700 574L800 551L900 538L900 601L800 601L700 601L600 601L500 601L400 601L300 601L200 601L100 601L0 601Z" fill="#468369"></path></svg>